<?xml version="1.0" encoding="UTF-8"?>
<svg width="72px" height="72px" viewBox="0 0 72 72" version="1.1" xmlns="http://www.w3.org/2000/svg" xmlns:xlink="http://www.w3.org/1999/xlink">
    <!-- Generator: Sketch 54.1 (76490) - https://sketchapp.com -->
    <title>Icon Big/fenix</title>
    <desc>Created with Sketch.</desc>
    <g id="Icon-Big/fenix" stroke="none" stroke-width="1" fill="none" fill-rule="evenodd">
        <path d="M68.970703,1 C68.6118138,1.01043336 68.286057,1.21244747 68.117188,1.5292969 C64.190574,8.897164 60.498914,12.173466 56.914062,14.345703 C53.329214,16.51794 49.716984,17.565536 46.175781,20.341797 C43.949034,22.087283 42.768908,23.675264 42.019531,24.746094 C41.644843,25.281509 41.367536,25.679805 41.193359,25.861328 C41.019183,26.042851 41.068881,26 41,26 L40.732422,26 C40.559712,25.941244 40.409861,25.822109 40.257812,25.466797 C40.095746,25.088072 40,24.52418 40,24 C40,23.659033 39.998047,18.324961 39.998047,18 C39.998047,17.434 39.967607,16.485257 39.392578,15.585938 C39.12846,15.172832 38.731596,14.808658 38.226562,14.53125 C38.465698,14.271259 38.958217,14 40,14 C43,14 44,9 41,9 C41.5,10.75 39,11 37,11 C35.180181,11 34.197151,12.454065 34.033203,14.410156 C33.416467,14.696201 32.939471,15.107716 32.632812,15.580078 C32.053548,16.472353 32.003906,17.417 32.003906,18 C32.003906,18.004677 32.003908,18.077376 32.003906,18.083984 C29.776059,18.457414 29,20 29,20 L32.001953,20 C32.000796,21.70397 32,23.778577 32,24 C31.9985,24.522795 31.796243,25.108935 31.529297,25.503906 C31.262029,25.899345 30.959861,26 31,26 C30.93112,26 30.97092,26.03745 30.791016,25.853516 C30.611113,25.669578 30.328457,25.272535 29.947266,24.738281 C29.184882,23.669774 27.991174,22.085935 25.765625,20.341797 C22.201895,17.54746 18.57326,16.743811 15.015625,14.820312 C11.45799,12.896814 7.805546,9.889887 3.8828125,2.5292969 C3.70564312,2.19707717 3.35690324,1.99251328 2.9804688,2 C2.43584918,2.01069253 1.99994951,2.45527543 2,3 C2,13.118373 3.9844008,19.238694 6.320312,23.060547 C6.817675,23.874295 7.337697,24.537741 7.853516,25.160156 C6.484063,24.549511 5.3806797,24.115639 3.4628906,23.113281 C3.12092027,22.9344775 2.70658965,22.9683715 2.39822513,23.2003752 C2.0898606,23.432379 1.94248615,23.8210941 2.0195312,24.199219 C2.0195312,24.199219 3.4799188,31.372203 9.441406,35.210938 C8.920739,35.566778 7.932214,36 6,36 C5.61039877,35.999794 5.25614028,36.2258595 5.09221026,36.5792942 C4.92828023,36.9327289 4.98452119,37.3491922 5.2363281,37.646484 C5.2363281,37.646484 6.036689,38.566649 7.607422,39.388672 C8.954917,40.093866 11.058995,40.68284 13.708984,40.863281 C13.705184,40.870181 13.707125,40.871976 13.703125,40.878906 C13.38152,41.440516 12.613265,42.292914 10.634766,43.068359 C10.2133161,43.2340919 9.95582981,43.662342 10.0070963,44.1122966 C10.0583627,44.5622512 10.4055859,44.9216026 10.853516,44.988281 C10.853516,44.988281 23.343122,47.010237 31.113281,41.095703 C31.615658,41.776102 32.156047,42.441676 32.746094,43.076172 C31.044044,44.997739 29,48.200735 29,53 C29,59.458158 32.208984,63.613281 32.208984,63.613281 C32.4742715,63.9567121 32.9307681,64.0898683 33.3390938,63.9429246 C33.7474195,63.7959809 34.014386,63.4024727 34,62.96875 C34,62.96875 33.94241,61.023228 34.179688,59.125 C34.298327,58.175886 34.501729,57.240188 34.759766,56.650391 C34.888784,56.355492 35.031194,56.156877 35.121094,56.072266 C35.210993,55.987654 35.204167,56 35.25,56 C35.594943,56 35.718879,56.07173 35.898438,56.273438 C36.077996,56.475141 36.270959,56.870839 36.394531,57.431641 C36.641676,58.553244 36.60896,60.258555 36.412109,61.976562 C36.018404,65.412582 35.037109,68.910156 35.037109,68.910156 C34.9160456,69.3360491 35.0894306,69.7908535 35.4632901,70.0280671 C35.8371497,70.2652808 36.3224864,70.228435 36.65625,69.9375 C36.65625,69.9375 44,63.561092 44,53 C44,47.076239 41.004359,44.530285 39.253906,42.886719 C39.645622,42.267274 40.085289,41.599477 40.537109,40.900391 C43.946881,44.109504 49.265972,45.044693 53.75,45.285156 C58.339957,45.531301 62.140625,44.990234 62.140625,44.990234 C62.5909545,44.9268761 62.9418413,44.5676693 62.9946302,44.1159789 C63.0474191,43.6642884 62.7888179,43.2338509 62.365234,43.068359 C60.474829,42.327441 59.397662,41.483184 58.767578,40.824219 C61.41417,40.481785 63.28575,39.841579 64.542969,39.214844 C66.055408,38.460878 66.771484,37.634766 66.771484,37.634766 C67.0167511,37.3360729 67.06796,36.9227934 66.9030124,36.5732711 C66.7380647,36.2237488 66.3864884,36.0005531 66,36 C64.153923,36 63.156264,35.605576 62.599609,35.253906 C68.336435,31.662192 69.972656,24.228516 69.972656,24.228516 C70.0423698,23.9313486 69.9725589,23.6186134 69.7830889,23.3793028 C69.5936189,23.1399921 69.305235,23.0003083 69,23 C68.7871861,22.9998463 68.5798715,23.0675826 68.408203,23.193359 C67.031711,24.205005 65.132449,25.029078 63.185547,25.708984 C64.001412,24.824577 64.856502,23.739562 65.662109,22.371094 C68.002419,18.395658 70,12.119291 70,2 C70.0000882,1.72963726 69.8907105,1.47075714 69.6967954,1.28236144 C69.5028803,1.09396574 69.2409505,0.992106994 68.970703,1 Z M67.804688,5.8984375 C67.353696,13.356602 65.753624,18.272411 63.9375,21.357422 C61.829048,24.939006 59.631359,26.242858 58.419922,27.185547 C58.3806516,27.2134265 58.3434455,27.2441053 58.308594,27.277344 C58.3079421,27.2779941 58.3072911,27.2786451 58.306641,27.279297 C58.3040223,27.2818866 58.3014179,27.2844906 58.298828,27.287109 C58.2437664,27.341843 58.195263,27.4028002 58.154297,27.46875 L58.091797,27.5 L58.066406,27.646484 C58.0426489,27.7077503 58.0249856,27.7712081 58.013672,27.835938 C58.0136663,27.837891 58.0136663,27.839844 58.013672,27.841797 C58.009443,27.8670533 58.0061853,27.8924627 58.003906,27.917969 C58.0030488,27.9296753 58.0023977,27.9413958 58.001953,27.953125 C58.0010215,27.9667822 58.0003703,27.9804571 58,27.994141 C57.9999593,27.9993493 57.9999593,28.0045577 58,28.009766 L57.933594,28.382812 L58.544922,29.037109 L58.892578,29.097656 L59.095703,28.996094 C59.1450935,28.991275 59.194057,28.9827879 59.242188,28.970703 C61.63695,28.372012 64.517869,27.375422 67.113281,26.068359 C66.262582,28.400891 64.613096,32.063533 60.691406,34.03125 C60.426598,34.1132774 60.2077177,34.3015405 60.0870097,34.5511027 C59.9663016,34.800665 59.9545964,35.0891344 60.054688,35.347656 C60.054688,35.347656 60.170214,35.629233 60.367188,35.900391 C60.56416,36.171548 60.871694,36.504099 61.326172,36.820312 C61.768931,37.128374 62.359296,37.412849 63.099609,37.626953 C61.843377,38.18297 60.000853,38.757316 57.142578,38.978516 C56.8000084,38.9260174 56.4546781,39.0546162 56.2298885,39.3183958 C56.0050989,39.5821754 55.9328967,39.9435305 56.039062,40.273438 C56.0396971,40.2766962 56.0403485,40.2799513 56.041016,40.283203 C56.041661,40.285158 56.042312,40.287111 56.042969,40.289062 C56.0429665,40.2903643 56.0429665,40.2916667 56.042969,40.292969 C56.0442596,40.2955787 56.0455616,40.2981827 56.046875,40.300781 C56.0728868,40.3811844 56.1089816,40.4579679 56.154297,40.529297 C56.261073,40.783834 56.513897,41.331714 57.160156,42.044922 C57.500704,42.420748 58.008539,42.833349 58.564453,43.244141 C57.208308,43.315001 55.680952,43.386958 53.855469,43.289062 C49.480676,43.054457 44.451901,42.006588 41.707031,39.261719 C41.6758761,39.2295755 41.6425983,39.19956 41.607422,39.171875 C41.743267,38.947428 41.882482,38.741416 42.015625,38.511719 C43.079371,36.676551 44,34.819623 44,33 C44,30.609208 43.090485,28.570749 42.441406,27.416016 C42.507395,27.359691 42.578021,27.305232 42.634766,27.246094 C43.015496,26.849304 43.296313,26.406913 43.65625,25.892578 C44.376123,24.863908 45.370903,23.51453 47.410156,21.916016 C50.613953,19.404277 54.113068,18.379199 57.949219,16.054688 C61.12899,14.127907 64.450838,11.148842 67.804688,5.8984375 Z M4.1933594,6.867188 C7.553637,12.065743 10.884549,14.860807 14.064453,16.580078 C17.899068,18.65333 21.35098,19.422352 24.53125,21.916016 C26.572701,23.515878 27.584698,24.867445 28.320312,25.898438 C28.688122,26.413933 28.975605,26.857578 29.361328,27.251953 C29.379254,27.270279 29.403039,27.286569 29.421875,27.304688 C29.216672,27.645 29.017502,28.024537 28.835938,28.480469 C28.368028,29.655449 28,31.211057 28,33 C28,35.117748 28.750076,37.330317 29.996094,39.431641 C25.341485,43.028129 18.292342,43.320357 14.275391,43.181641 C14.765764,42.741531 15.197037,42.296371 15.439453,41.873047 C15.7309,41.364102 15.86327,40.895607 15.916016,40.541016 C15.968513,40.188123 15.931992,39.870225 15.931641,39.867188 L15.958984,39.716797 L15.857422,39.607422 C15.7657508,39.3980788 15.605147,39.2264464 15.402344,39.121094 L15.347656,39.0625 L15,39 L14.986328,39.007812 C14.9713705,39.0068244 14.9563927,39.0061733 14.941406,39.005859 C11.981946,39.005859 9.981294,38.332546 8.675781,37.669922 C9.507981,37.452099 10.174354,37.15861 10.650391,36.822266 C11.099595,36.50488 11.401882,36.168268 11.59375,35.894531 C11.662183,35.796898 11.705803,35.708127 11.751953,35.621094 L11.800781,35.597656 L11.816406,35.511719 C11.867618,35.406288 11.894531,35.335938 11.894531,35.335938 C11.9494653,35.1772787 11.9635709,35.0073423 11.935547,34.841797 L11.958984,34.716797 L11.869141,34.621094 C11.7792198,34.4070652 11.6176409,34.2309859 11.412109,34.123047 C11.406039,34.119874 11.400591,34.11646 11.394531,34.113281 L11.347656,34.0625 L11.285156,34.050781 C7.050637,31.779875 5.5138528,28.138003 4.7773438,25.927734 C9.545756,28.231796 12.671875,29.314453 12.671875,29.314453 C12.7570885,29.3383481 12.8450967,29.3508268 12.933594,29.351562 L13.042969,29.371094 L13.107422,29.337891 C13.3080119,29.305567 13.4939988,29.2129141 13.640625,29.072266 L13.84375,28.970703 L13.902344,28.644531 C13.9280464,28.5628171 13.943144,28.4781396 13.947266,28.392578 L14.001953,28.087891 L13.851562,27.925781 C13.7847791,27.7843974 13.6857754,27.6606426 13.5625,27.564453 C13.518634,27.530068 13.454312,27.487957 13.408203,27.453125 L13.390625,27.433594 L13.378906,27.431641 C12.107541,26.476923 10.043317,25.315969 8.027344,22.017578 C6.229527,19.076119 4.6398196,14.295683 4.1933594,6.867188 Z M7,14 L6.199219,14.402344 L6.041016,15.283203 L6.652344,15.9375 L7,16 L7.800781,15.597656 L7.958984,14.716797 L7.347656,14.0625 L7,14 Z M64,14 L63.199219,14.402344 L63.041016,15.283203 L63.652344,15.9375 L64,16 L64.800781,15.597656 L64.958984,14.716797 L64.347656,14.0625 L64,14 Z M36,16 C37.16249,16 37.482807,16.313384 37.707031,16.664062 C37.931256,17.014743 37.998047,17.566 37.998047,18 C37.998047,18.329039 38,23.662967 38,24 C38,24.73582 38.105036,25.522631 38.417969,26.253906 C38.730902,26.985182 39.324171,27.716074 40.236328,27.964844 C40.2964208,27.9809484 40.3578852,27.9914104 40.419922,27.996094 C40.762833,28.511895 42,30.461784 42,33 C42,34.065377 41.28741,35.778731 40.285156,37.507812 C39.282902,39.236897 38.042529,41.002083 37.144531,42.480469 C36.905354,42.8746582 36.9666647,43.3812761 37.292969,43.707031 C39.19301,45.607073 42,47.240378 42,53 C42,58.809834 39.65188,62.992296 37.730469,65.580078 C38.022168,64.261373 38.205376,63.907047 38.400391,62.205078 C38.609788,60.377588 38.686449,58.537522 38.347656,57 C38.17826,56.231239 37.903449,55.519188 37.392578,54.945312 C36.881707,54.371437 36.092557,54 35.25,54 C34.670833,54 34.124944,54.262346 33.75,54.615234 C33.375056,54.968123 33.126841,55.394508 32.927734,55.849609 C32.529521,56.759812 32.326673,57.824114 32.195312,58.875 C32.174202,59.043891 32.196707,59.041758 32.179688,59.208984 C31.568053,57.627036 31,55.577713 31,53 C31,48.316667 33.227079,45.186984 34.707031,43.707031 C35.0973991,43.3165012 35.0973991,42.6834988 34.707031,42.292969 C31.847353,39.43329 30,35.799148 30,33 C30,31.487943 30.318519,30.161973 30.693359,29.220703 C30.880779,28.750068 31.083988,28.374435 31.246094,28.138672 C31.311289,28.043853 31.371447,27.997083 31.417969,27.957031 C32.197103,27.805846 32.767259,27.246786 33.1875,26.625 C33.679738,25.896688 33.998043,24.983692 34,24.001953 C34.0000006,24.001302 34.0000006,24.000651 34,24 C34,23.680135 34.003906,18.345882 34.003906,18 C34.003906,17.583 34.078316,17.027647 34.310547,16.669922 C34.542788,16.312196 34.868601,16 36,16 Z M9,17.337891 L8.199219,17.740234 L8.041016,18.621094 L8.652344,19.275391 L9,19.337891 L9.800781,18.9375 L9.958984,18.054688 L9.345703,17.400391 L9,17.337891 Z M62.470703,17.591797 L61.669922,17.992188 L61.511719,18.875 L62.123047,19.529297 L62.470703,19.591797 L63.271484,19.189453 L63.429688,18.308594 L62.816406,17.654297 L62.470703,17.591797 Z M36,18 C35.4477153,18 35,18.4477153 35,19 C35,19.5522847 35.4477153,20 36,20 C36.5522847,20 37,19.5522847 37,19 C37,18.4477153 36.5522847,18 36,18 Z M12.361328,19.476562 L11.560547,19.878906 L11.402344,20.761719 L12.015625,21.416016 L12.361328,21.476562 L13.164062,21.076172 L13.320312,20.193359 L12.708984,19.539062 L12.361328,19.476562 Z M59.162109,19.789062 L58.361328,20.189453 L58.203125,21.072266 L58.816406,21.726562 L59.162109,21.789062 L59.962891,21.386719 L60.121094,20.505859 L59.509766,19.851562 L59.162109,19.789062 Z M16.158203,20.705078 L15.357422,21.107422 L15.199219,21.990234 L15.810547,22.644531 L16.158203,22.705078 L16.958984,22.304688 L17.117188,21.421875 L16.503906,20.767578 L16.158203,20.705078 Z M55.314453,20.832031 L54.513672,21.234375 L54.355469,22.117188 L54.966797,22.771484 L55.314453,22.832031 L56.115234,22.431641 L56.273438,21.548828 L55.662109,20.894531 L55.314453,20.832031 Z M55.345703,28.927734 L54.544922,29.330078 L54.386719,30.210938 L55,30.865234 L55.345703,30.927734 L56.148438,30.527344 L56.304688,29.644531 L55.693359,28.990234 L55.345703,28.927734 Z M16.597656,29.173828 L15.796875,29.576172 L15.638672,30.457031 L16.25,31.111328 L16.597656,31.173828 L17.398438,30.773438 L17.556641,29.890625 L16.943359,29.236328 L16.597656,29.173828 Z M20.5,30 L19.699219,30.402344 L19.541016,31.283203 L20.152344,31.9375 L20.5,32 L21.300781,31.597656 L21.458984,30.716797 L20.847656,30.0625 L20.5,30 Z M51.5,30 L50.699219,30.402344 L50.541016,31.283203 L51.152344,31.9375 L51.5,32 L52.300781,31.597656 L52.458984,30.716797 L51.847656,30.0625 L51.5,30 Z M18.822266,34.927734 L18.021484,35.330078 L17.863281,36.212891 L18.476562,36.867188 L18.822266,36.927734 L19.623047,36.527344 L19.78125,35.644531 L19.169922,34.990234 L18.822266,34.927734 Z M53.177734,34.927734 L52.376953,35.330078 L52.21875,36.212891 L52.830078,36.867188 L53.177734,36.927734 L53.978516,36.527344 L54.136719,35.644531 L53.523438,34.990234 L53.177734,34.927734 Z M14.837891,35.052734 L14.037109,35.453125 L13.878906,36.335938 L14.490234,36.990234 L14.837891,37.052734 L15.638672,36.650391 L15.796875,35.769531 L15.183594,35.115234 L14.837891,35.052734 Z M57.162109,35.052734 L56.361328,35.453125 L56.203125,36.335938 L56.816406,36.990234 L57.162109,37.052734 L57.962891,36.650391 L58.121094,35.769531 L57.509766,35.115234 L57.162109,35.052734 Z M34,37 C33.4477153,37 33,37.4477153 33,38 C33,38.5522847 33.4477153,39 34,39 C34.5522847,39 35,38.5522847 35,38 C35,37.4477153 34.5522847,37 34,37 Z M38,37 C37.4477153,37 37,37.4477153 37,38 C37,38.5522847 37.4477153,39 38,39 C38.5522847,39 39,38.5522847 39,38 C39,37.4477153 38.5522847,37 38,37 Z M22.876953,38.179688 L22.076172,38.582031 L21.917969,39.464844 L22.53125,40.119141 L22.876953,40.179688 L23.679688,39.779297 L23.835938,38.896484 L23.224609,38.242188 L22.876953,38.179688 Z M49.123047,38.179688 L48.320312,38.582031 L48.164062,39.464844 L48.775391,40.119141 L49.123047,40.179688 L49.923828,39.779297 L50.082031,38.896484 L49.46875,38.242188 L49.123047,38.179688 Z M18.996094,39.052734 L18.195312,39.455078 L18.037109,40.335938 L18.648438,40.990234 L18.996094,41.052734 L19.796875,40.650391 L19.955078,39.769531 L19.34375,39.115234 L18.996094,39.052734 Z M53.003906,39.052734 L52.203125,39.455078 L52.044922,40.335938 L52.65625,40.990234 L53.003906,41.052734 L53.804688,40.650391 L53.962891,39.769531 L53.351562,39.115234 L53.003906,39.052734 Z" id="icon" fill="#FFFFFF"></path>
    </g>
</svg>