<?xml version="1.0" encoding="UTF-8"?>
<svg width="72px" height="72px" viewBox="0 0 72 72" version="1.1" xmlns="http://www.w3.org/2000/svg" xmlns:xlink="http://www.w3.org/1999/xlink">
    <!-- Generator: Sketch 54.1 (76490) - https://sketchapp.com -->
    <title>Icon Big/resize</title>
    <desc>Created with Sketch.</desc>
    <g id="Icon-Big/resize" stroke="none" stroke-width="1" fill="none" fill-rule="evenodd">
        <path d="M6,5 C5.449219,5 5,5.449219 5,6 C5,6.550781 5.449219,7 6,7 C6.550781,7 7,6.550781 7,6 C7,5.449219 6.550781,5 6,5 Z M10,5 C9.449219,5 9,5.449219 9,6 C9,6.550781 9.449219,7 10,7 C10.550781,7 11,6.550781 11,6 C11,5.449219 10.550781,5 10,5 Z M14,5 C13.449219,5 13,5.449219 13,6 C13,6.550781 13.449219,7 14,7 C14.550781,7 15,6.550781 15,6 C15,5.449219 14.550781,5 14,5 Z M18,5 C17.449219,5 17,5.449219 17,6 C17,6.550781 17.449219,7 18,7 C18.550781,7 19,6.550781 19,6 C19,5.449219 18.550781,5 18,5 Z M22,5 C21.449219,5 21,5.449219 21,6 C21,6.550781 21.449219,7 22,7 C22.550781,7 23,6.550781 23,6 C23,5.449219 22.550781,5 22,5 Z M26,5 C25.449219,5 25,5.449219 25,6 C25,6.550781 25.449219,7 26,7 C26.550781,7 27,6.550781 27,6 C27,5.449219 26.550781,5 26,5 Z M30,5 C29.449219,5 29,5.449219 29,6 C29,6.550781 29.449219,7 30,7 C30.550781,7 31,6.550781 31,6 C31,5.449219 30.550781,5 30,5 Z M34,5 C33.449219,5 33,5.449219 33,6 C33,6.550781 33.449219,7 34,7 C34.550781,7 35,6.550781 35,6 C35,5.449219 34.550781,5 34,5 Z M38,5 C37.449219,5 37,5.449219 37,6 C37,6.550781 37.449219,7 38,7 C38.550781,7 39,6.550781 39,6 C39,5.449219 38.550781,5 38,5 Z M42,5 C41.449219,5 41,5.449219 41,6 C41,6.550781 41.449219,7 42,7 C42.550781,7 43,6.550781 43,6 C43,5.449219 42.550781,5 42,5 Z M46,5 C45.449219,5 45,5.449219 45,6 C45,6.550781 45.449219,7 46,7 C46.550781,7 47,6.550781 47,6 C47,5.449219 46.550781,5 46,5 Z M50,5 C49.449219,5 49,5.449219 49,6 C49,6.550781 49.449219,7 50,7 C50.550781,7 51,6.550781 51,6 C51,5.449219 50.550781,5 50,5 Z M54,5 C53.449219,5 53,5.449219 53,6 C53,6.550781 53.449219,7 54,7 C54.550781,7 55,6.550781 55,6 C55,5.449219 54.550781,5 54,5 Z M58,5 C57.449219,5 57,5.449219 57,6 C57,6.550781 57.449219,7 58,7 C58.550781,7 59,6.550781 59,6 C59,5.449219 58.550781,5 58,5 Z M62,5 C61.449219,5 61,5.449219 61,6 C61,6.550781 61.449219,7 62,7 C62.550781,7 63,6.550781 63,6 C63,5.449219 62.550781,5 62,5 Z M66,5 C65.449219,5 65,5.449219 65,6 C65,6.550781 65.449219,7 66,7 C66.550781,7 67,6.550781 67,6 C67,5.449219 66.550781,5 66,5 Z M6,9 C5.449219,9 5,9.449219 5,10 C5,10.550781 5.449219,11 6,11 C6.550781,11 7,10.550781 7,10 C7,9.449219 6.550781,9 6,9 Z M66,9 C65.449219,9 65,9.449219 65,10 C65,10.550781 65.449219,11 66,11 C66.550781,11 67,10.550781 67,10 C67,9.449219 66.550781,9 66,9 Z M6,13 C5.449219,13 5,13.449219 5,14 C5,14.550781 5.449219,15 6,15 C6.550781,15 7,14.550781 7,14 C7,13.449219 6.550781,13 6,13 Z M66,13 C65.449219,13 65,13.449219 65,14 C65,14.550781 65.449219,15 66,15 C66.550781,15 67,14.550781 67,14 C67,13.449219 66.550781,13 66,13 Z M6,17 C5.449219,17 5,17.449219 5,18 C5,18.550781 5.449219,19 6,19 C6.550781,19 7,18.550781 7,18 C7,17.449219 6.550781,17 6,17 Z M66,17 C65.449219,17 65,17.449219 65,18 C65,18.550781 65.449219,19 66,19 C66.550781,19 67,18.550781 67,18 C67,17.449219 66.550781,17 66,17 Z M39,18 L39,20 L50.585938,20 L37.585938,33 L5,33 L5,67 L39,67 L39,34.414063 L52,21.414063 L52,33 L54,33 L54,18 L39,18 Z M6,21 C5.449219,21 5,21.449219 5,22 C5,22.550781 5.449219,23 6,23 C6.550781,23 7,22.550781 7,22 C7,21.449219 6.550781,21 6,21 Z M66,21 C65.449219,21 65,21.449219 65,22 C65,22.550781 65.449219,23 66,23 C66.550781,23 67,22.550781 67,22 C67,21.449219 66.550781,21 66,21 Z M6,25 C5.449219,25 5,25.449219 5,26 C5,26.550781 5.449219,27 6,27 C6.550781,27 7,26.550781 7,26 C7,25.449219 6.550781,25 6,25 Z M66,25 C65.449219,25 65,25.449219 65,26 C65,26.550781 65.449219,27 66,27 C66.550781,27 67,26.550781 67,26 C67,25.449219 66.550781,25 66,25 Z M6,29 C5.449219,29 5,29.449219 5,30 C5,30.550781 5.449219,31 6,31 C6.550781,31 7,30.550781 7,30 C7,29.449219 6.550781,29 6,29 Z M66,29 C65.449219,29 65,29.449219 65,30 C65,30.550781 65.449219,31 66,31 C66.550781,31 67,30.550781 67,30 C67,29.449219 66.550781,29 66,29 Z M66,33 C65.449219,33 65,33.449219 65,34 C65,34.550781 65.449219,35 66,35 C66.550781,35 67,34.550781 67,34 C67,33.449219 66.550781,33 66,33 Z M7,35 L37,35 L37,65 L7,65 L7,35 Z M66,37 C65.449219,37 65,37.449219 65,38 C65,38.550781 65.449219,39 66,39 C66.550781,39 67,38.550781 67,38 C67,37.449219 66.550781,37 66,37 Z M66,41 C65.449219,41 65,41.449219 65,42 C65,42.550781 65.449219,43 66,43 C66.550781,43 67,42.550781 67,42 C67,41.449219 66.550781,41 66,41 Z M66,45 C65.449219,45 65,45.449219 65,46 C65,46.550781 65.449219,47 66,47 C66.550781,47 67,46.550781 67,46 C67,45.449219 66.550781,45 66,45 Z M66,49 C65.449219,49 65,49.449219 65,50 C65,50.550781 65.449219,51 66,51 C66.550781,51 67,50.550781 67,50 C67,49.449219 66.550781,49 66,49 Z M66,53 C65.449219,53 65,53.449219 65,54 C65,54.550781 65.449219,55 66,55 C66.550781,55 67,54.550781 67,54 C67,53.449219 66.550781,53 66,53 Z M66,57 C65.449219,57 65,57.449219 65,58 C65,58.550781 65.449219,59 66,59 C66.550781,59 67,58.550781 67,58 C67,57.449219 66.550781,57 66,57 Z M66,61 C65.449219,61 65,61.449219 65,62 C65,62.550781 65.449219,63 66,63 C66.550781,63 67,62.550781 67,62 C67,61.449219 66.550781,61 66,61 Z M42,65 C41.449219,65 41,65.449219 41,66 C41,66.550781 41.449219,67 42,67 C42.550781,67 43,66.550781 43,66 C43,65.449219 42.550781,65 42,65 Z M46,65 C45.449219,65 45,65.449219 45,66 C45,66.550781 45.449219,67 46,67 C46.550781,67 47,66.550781 47,66 C47,65.449219 46.550781,65 46,65 Z M50,65 C49.449219,65 49,65.449219 49,66 C49,66.550781 49.449219,67 50,67 C50.550781,67 51,66.550781 51,66 C51,65.449219 50.550781,65 50,65 Z M54,65 C53.449219,65 53,65.449219 53,66 C53,66.550781 53.449219,67 54,67 C54.550781,67 55,66.550781 55,66 C55,65.449219 54.550781,65 54,65 Z M58,65 C57.449219,65 57,65.449219 57,66 C57,66.550781 57.449219,67 58,67 C58.550781,67 59,66.550781 59,66 C59,65.449219 58.550781,65 58,65 Z M62,65 C61.449219,65 61,65.449219 61,66 C61,66.550781 61.449219,67 62,67 C62.550781,67 63,66.550781 63,66 C63,65.449219 62.550781,65 62,65 Z M66,65 C65.449219,65 65,65.449219 65,66 C65,66.550781 65.449219,67 66,67 C66.550781,67 67,66.550781 67,66 C67,65.449219 66.550781,65 66,65 Z" id="icon" fill="#FFFFFF"></path>
    </g>
</svg>