<?xml version="1.0" encoding="UTF-8"?>
<svg width="72px" height="72px" viewBox="0 0 72 72" version="1.1" xmlns="http://www.w3.org/2000/svg" xmlns:xlink="http://www.w3.org/1999/xlink">
    <!-- Generator: Sketch 54.1 (76490) - https://sketchapp.com -->
    <title>Icon Big/communication</title>
    <desc>Created with Sketch.</desc>
    <g id="Icon-Big/communication" stroke="none" stroke-width="1" fill="none" fill-rule="evenodd">
        <path d="M8,4 C5.8026661,4 4,5.802666 4,8 L4,32 C4,34.197334 5.8026661,36 8,36 L10,36 L10,44.414062 L18.414062,36 L48,36 C50.197334,36 52,34.197334 52,32 L52,8 C52,5.802666 50.197334,4 48,4 L8,4 Z M8,6 L48,6 C49.116666,6 50,6.883334 50,8 L50,32 C50,33.116666 49.116666,34 48,34 L17.585938,34 L12,39.585938 L12,34 L8,34 C6.883334,34 6,33.116666 6,32 L6,8 C6,6.883334 6.883334,6 8,6 Z M10,9 C9.44771525,9 9,9.44771525 9,10 C9,10.5522847 9.44771525,11 10,11 C10.5522847,11 11,10.5522847 11,10 C11,9.44771525 10.5522847,9 10,9 Z M14,9 C13.4477153,9 13,9.44771525 13,10 C13,10.5522847 13.4477153,11 14,11 C14.5522847,11 15,10.5522847 15,10 C15,9.44771525 14.5522847,9 14,9 Z M18,9 C17.4477153,9 17,9.44771525 17,10 C17,10.5522847 17.4477153,11 18,11 C18.5522847,11 19,10.5522847 19,10 C19,9.44771525 18.5522847,9 18,9 Z M22,9 C21.4477153,9 21,9.44771525 21,10 C21,10.5522847 21.4477153,11 22,11 C22.5522847,11 23,10.5522847 23,10 C23,9.44771525 22.5522847,9 22,9 Z M26,9 C25.4477153,9 25,9.44771525 25,10 C25,10.5522847 25.4477153,11 26,11 C26.5522847,11 27,10.5522847 27,10 C27,9.44771525 26.5522847,9 26,9 Z M30,9 C29.4477153,9 29,9.44771525 29,10 C29,10.5522847 29.4477153,11 30,11 C30.5522847,11 31,10.5522847 31,10 C31,9.44771525 30.5522847,9 30,9 Z M34,9 C33.4477153,9 33,9.44771525 33,10 C33,10.5522847 33.4477153,11 34,11 C34.5522847,11 35,10.5522847 35,10 C35,9.44771525 34.5522847,9 34,9 Z M38,9 C37.4477153,9 37,9.44771525 37,10 C37,10.5522847 37.4477153,11 38,11 C38.5522847,11 39,10.5522847 39,10 C39,9.44771525 38.5522847,9 38,9 Z M42,9 C41.4477153,9 41,9.44771525 41,10 C41,10.5522847 41.4477153,11 42,11 C42.5522847,11 43,10.5522847 43,10 C43,9.44771525 42.5522847,9 42,9 Z M46,9 C45.4477153,9 45,9.44771525 45,10 C45,10.5522847 45.4477153,11 46,11 C46.5522847,11 47,10.5522847 47,10 C47,9.44771525 46.5522847,9 46,9 Z M10,13 C9.44771525,13 9,13.4477153 9,14 C9,14.5522847 9.44771525,15 10,15 C10.5522847,15 11,14.5522847 11,14 C11,13.4477153 10.5522847,13 10,13 Z M18,16 C17.6393641,15.9948997 17.3039186,16.1843753 17.1221123,16.4958728 C16.9403059,16.8073704 16.9403059,17.1926296 17.1221123,17.5041272 C17.3039186,17.8156247 17.6393641,18.0051003 18,18 L42,18 C42.3606359,18.0051003 42.6960814,17.8156247 42.8778877,17.5041272 C43.0596941,17.1926296 43.0596941,16.8073704 42.8778877,16.4958728 C42.6960814,16.1843753 42.3606359,15.9948997 42,16 L18,16 Z M10,17 C9.44771525,17 9,17.4477153 9,18 C9,18.5522847 9.44771525,19 10,19 C10.5522847,19 11,18.5522847 11,18 C11,17.4477153 10.5522847,17 10,17 Z M10,21 C9.44771525,21 9,21.4477153 9,22 C9,22.5522847 9.44771525,23 10,23 C10.5522847,23 11,22.5522847 11,22 C11,21.4477153 10.5522847,21 10,21 Z M18,21 C17.6393641,20.9948997 17.3039186,21.1843753 17.1221123,21.4958728 C16.9403059,21.8073704 16.9403059,22.1926296 17.1221123,22.5041272 C17.3039186,22.8156247 17.6393641,23.0051003 18,23 L42,23 C42.3606359,23.0051003 42.6960814,22.8156247 42.8778877,22.5041272 C43.0596941,22.1926296 43.0596941,21.8073704 42.8778877,21.4958728 C42.6960814,21.1843753 42.3606359,20.9948997 42,21 L18,21 Z M10,25 C9.44771525,25 9,25.4477153 9,26 C9,26.5522847 9.44771525,27 10,27 C10.5522847,27 11,26.5522847 11,26 C11,25.4477153 10.5522847,25 10,25 Z M18,26 C17.6393641,25.9948997 17.3039186,26.1843753 17.1221123,26.4958728 C16.9403059,26.8073704 16.9403059,27.1926296 17.1221123,27.5041272 C17.3039186,27.8156247 17.6393641,28.0051003 18,28 L31,28 C31.3606359,28.0051003 31.6960814,27.8156247 31.8778877,27.5041272 C32.0596941,27.1926296 32.0596941,26.8073704 31.8778877,26.4958728 C31.6960814,26.1843753 31.3606359,25.9948997 31,26 L18,26 Z M54,27 L54,29 L64,29 C65.116666,29 66,29.883334 66,31 L66,55 C66,56.116666 65.116666,57 64,57 L60,57 L60,62.585938 L54.414062,57 L24,57 C22.883334,57 22,56.116666 22,55 L22,38 L20,38 L20,55 C20,57.197334 21.802666,59 24,59 L53.585938,59 L62,67.414062 L62,59 L64,59 C66.197334,59 68,57.197334 68,55 L68,31 C68,28.802666 66.197334,27 64,27 L54,27 Z M10,29 C9.44771525,29 9,29.4477153 9,30 C9,30.5522847 9.44771525,31 10,31 C10.5522847,31 11,30.5522847 11,30 C11,29.4477153 10.5522847,29 10,29 Z M58,32 C57.4477153,32 57,32.4477153 57,33 C57,33.5522847 57.4477153,34 58,34 C58.5522847,34 59,33.5522847 59,33 C59,32.4477153 58.5522847,32 58,32 Z M62,32 C61.4477153,32 61,32.4477153 61,33 C61,33.5522847 61.4477153,34 62,34 C62.5522847,34 63,33.5522847 63,33 C63,32.4477153 62.5522847,32 62,32 Z M26,40 C25.4477153,40 25,40.4477153 25,41 C25,41.5522847 25.4477153,42 26,42 C26.5522847,42 27,41.5522847 27,41 C27,40.4477153 26.5522847,40 26,40 Z M34,40 C33.6393641,39.9948997 33.3039186,40.1843753 33.1221123,40.4958728 C32.9403059,40.8073704 32.9403059,41.1926296 33.1221123,41.5041272 C33.3039186,41.8156247 33.6393641,42.0051003 34,42 L58,42 C58.3606359,42.0051003 58.6960814,41.8156247 58.8778877,41.5041272 C59.0596941,41.1926296 59.0596941,40.8073704 58.8778877,40.4958728 C58.6960814,40.1843753 58.3606359,39.9948997 58,40 L34,40 Z M26,44 C25.4477153,44 25,44.4477153 25,45 C25,45.5522847 25.4477153,46 26,46 C26.5522847,46 27,45.5522847 27,45 C27,44.4477153 26.5522847,44 26,44 Z M34,45 C33.6393641,44.9948997 33.3039186,45.1843753 33.1221123,45.4958728 C32.9403059,45.8073704 32.9403059,46.1926296 33.1221123,46.5041272 C33.3039186,46.8156247 33.6393641,47.0051003 34,47 L58,47 C58.3606359,47.0051003 58.6960814,46.8156247 58.8778877,46.5041272 C59.0596941,46.1926296 59.0596941,45.8073704 58.8778877,45.4958728 C58.6960814,45.1843753 58.3606359,44.9948997 58,45 L34,45 Z M26,48 C25.4477153,48 25,48.4477153 25,49 C25,49.5522847 25.4477153,50 26,50 C26.5522847,50 27,49.5522847 27,49 C27,48.4477153 26.5522847,48 26,48 Z M34,50 C33.6393641,49.9948997 33.3039186,50.1843753 33.1221123,50.4958728 C32.9403059,50.8073704 32.9403059,51.1926296 33.1221123,51.5041272 C33.3039186,51.8156247 33.6393641,52.0051003 34,52 L47,52 C47.3606359,52.0051003 47.6960814,51.8156247 47.8778877,51.5041272 C48.0596941,51.1926296 48.0596941,50.8073704 47.8778877,50.4958728 C47.6960814,50.1843753 47.3606359,49.9948997 47,50 L34,50 Z M26,52 C25.4477153,52 25,52.4477153 25,53 C25,53.5522847 25.4477153,54 26,54 C26.5522847,54 27,53.5522847 27,53 C27,52.4477153 26.5522847,52 26,52 Z" id="icon" fill="#FFFFFF"></path>
    </g>
</svg>