<?xml version="1.0" encoding="UTF-8"?>
<svg width="72px" height="72px" viewBox="0 0 72 72" version="1.1" xmlns="http://www.w3.org/2000/svg" xmlns:xlink="http://www.w3.org/1999/xlink">
    <!-- Generator: Sketch 54.1 (76490) - https://sketchapp.com -->
    <title>Icon Big/laurel-wreath</title>
    <desc>Created with Sketch.</desc>
    <g id="Icon-Big/laurel-wreath" stroke="none" stroke-width="1" fill="none" fill-rule="evenodd">
        <path d="M22.484375,2.65625 L21.554688,3.0898438 C21.554688,3.0898438 17.09638,5.080981 15.552734,9.443359 C14.248959,13.127861 15.484682,16.799944 15.917969,17.90625 C15.704709,18.288007 15.218895,19.202136 14.533203,20.796875 C13.10146,16.458005 8.710936,14.125 8.710938,14.125 L7.814453,13.628906 L7.339844,14.537109 C7.339844,14.537109 5.0335417,18.793484 6.451172,23.158203 C7.757997,27.181765 11.471058,29.396075 12.066406,29.732422 C12.004314,30.367198 11.997794,30.901355 12.005859,31.330078 C12.005448,31.378879 12,31.427778 12,31.476562 C12,32.102523 12.023993,32.711104 12.0625,33.308594 C9.240202,30.533561 5.1914064,30.009766 5.1914062,30.009766 L4.1777344,29.861328 L4.0546875,30.880859 C4.0546875,30.880859 3.4134051,35.537312 6.201172,39.023438 C8.990015,42.509492 13.808594,43.123047 13.808594,43.123047 L14.822266,43.271484 L14.830078,43.212891 C15.217686,43.939841 15.640431,44.63369 16.087891,45.304688 C15.056314,45.037188 14.028448,44.957965 13.0625,45.001953 C9.992451,45.141763 7.541016,46.460936 7.541016,46.460938 L6.630859,46.931641 L7.123047,47.830078 C7.123047,47.830078 9.355703,52.067888 13.728516,53.300781 C18.078118,54.527131 22.397698,52.219796 22.443359,52.195312 C23.031972,52.68901 23.622699,53.181367 24.222656,53.642578 C24.395689,53.775595 24.56881,53.898308 24.742188,54.029297 C24.454089,54.007456 24.160784,53.995928 23.861328,54.003906 C19.544095,54.118926 16.265625,57.470703 16.265625,57.470703 L15.533203,58.189453 L16.271484,58.902344 C16.271484,58.902344 19.481769,62.111923 23.798828,61.998047 C27.814753,61.891054 30.816886,59.083084 31.232422,58.677734 C32.372721,59.489343 33.426876,60.283002 34.410156,61.076172 C32.992434,62.446036 31.832343,63.916936 31.085938,65.59375 C30.9406846,65.9203325 30.9807296,66.2996033 31.1909836,66.5886498 C31.4012376,66.8776964 31.7497461,67.0325891 32.105188,66.9949631 C32.4606299,66.9573371 32.7689849,66.7329108 32.914062,66.40625 C33.538985,65.002353 34.618294,63.697431 36,62.417969 C37.381706,63.697431 38.461015,65.002353 39.085938,66.40625 C39.2310151,66.7329108 39.5393701,66.9573371 39.894812,66.9949631 C40.2502539,67.0325891 40.5987624,66.8776964 40.8090164,66.5886498 C41.0192704,66.2996033 41.0593154,65.9203325 40.914062,65.59375 C40.167657,63.916936 39.007566,62.446036 37.589844,61.076172 C38.573124,60.283002 39.627279,59.489343 40.767578,58.677734 C41.183114,59.083084 44.185247,61.891054 48.201172,61.998047 C52.518231,62.111923 55.728516,58.902344 55.728516,58.902344 L56.466797,58.189453 L55.734375,57.470703 C55.734375,57.470703 52.455905,54.118926 48.138672,54.003906 C47.834466,53.995802 47.539666,54.011153 47.248047,54.035156 C47.424463,53.90191 47.601283,53.777923 47.777344,53.642578 C48.379179,53.179924 48.974316,52.694783 49.564453,52.199219 C49.632673,52.235724 53.933427,54.523876 58.271484,53.300781 C62.644297,52.067888 64.876953,47.830078 64.876953,47.830078 L65.369141,46.931641 L64.458984,46.460938 C64.458984,46.460938 62.007549,45.141763 58.9375,45.001953 C57.969675,44.957882 56.939846,45.037892 55.90625,45.306641 C55.910564,45.298066 55.913667,45.287899 55.917969,45.279297 C56.360363,44.614005 56.786024,43.932883 57.169922,43.212891 L57.177734,43.271484 L58.191406,43.123047 C58.191406,43.123047 63.009985,42.509492 65.798828,39.023438 C68.586512,35.537413 67.947266,30.880859 67.947266,30.880859 L67.824219,29.861328 L66.808594,30.009766 C66.808594,30.009766 62.760399,30.532989 59.9375,33.308594 C59.975186,32.72385 59.997049,32.127509 59.998047,31.515625 C60.016023,31.071984 60.005607,30.465508 59.933594,29.730469 C60.511858,29.404556 64.238675,27.192016 65.548828,23.158203 C66.967649,18.793297 64.660156,14.537109 64.660156,14.537109 L64.185547,13.628906 L63.289062,14.125 C63.289062,14.125 58.89854,16.458005 57.466797,20.796875 C56.781105,19.202136 56.295291,18.288007 56.082031,17.90625 C56.515318,16.799944 57.751041,13.127861 56.447266,9.443359 C54.90362,5.080981 50.445313,3.0898436 50.445312,3.0898438 L49.515625,2.65625 L49.105469,3.5976562 C49.105469,3.5976562 47.009091,8.186456 48.552734,12.548828 C49.938627,16.465392 53.510786,18.379103 54.259766,18.748047 C54.422573,19.04624 55.146831,20.407612 55.917969,22.337891 C53.260603,20.40582 50.191406,20.009766 50.191406,20.009766 L49.175781,19.861328 L49.052734,20.880859 C49.052734,20.880859 48.413488,25.537415 51.201172,29.023438 C53.2687,31.607848 56.442913,32.609707 57.951172,32.957031 C57.827868,35.23904 57.419378,37.287713 56.789062,39.148438 C56.06866,35.868225 53.707031,33.585938 53.707031,33.585938 L53,32.876953 L52.292969,33.585938 C52.292969,33.585938 49,36.755189 49,41 C49,43.987513 50.612303,46.404484 51.578125,47.595703 C50.375041,48.873799 49.055964,50.036028 47.689453,51.140625 C48.582919,47.800351 47.330078,44.646484 47.330078,44.646484 L46.966797,43.6875 L46.017578,44.074219 C46.017578,44.074219 41.793203,45.696225 40.039062,49.488281 C38.593362,52.611524 39.402907,55.791663 39.746094,56.863281 C38.416684,57.788728 37.160379,58.717717 36,59.677734 C34.839621,58.717717 33.583316,57.788728 32.253906,56.863281 C32.597093,55.791663 33.406638,52.611524 31.960938,49.488281 C30.206797,45.696225 25.982422,44.074219 25.982422,44.074219 L25.033203,43.6875 L24.669922,44.646484 C24.669922,44.646484 23.417081,47.800351 24.310547,51.140625 C22.944036,50.036028 21.624959,48.873799 20.421875,47.595703 C21.387697,46.404484 23,43.987513 23,41 C23,36.755189 19.707031,33.585938 19.707031,33.585938 L19,32.876953 L18.292969,33.585938 C18.292969,33.585938 15.93134,35.868225 15.210938,39.148438 C14.580622,37.287713 14.172132,35.23904 14.048828,32.957031 C15.557087,32.609707 18.7313,31.607848 20.798828,29.023438 C23.586595,25.537312 22.945313,20.880859 22.945312,20.880859 L22.822266,19.861328 L21.808594,20.009766 C21.808594,20.009766 18.74946,20.404875 16.095703,22.330078 C16.90291,20.321662 17.576225,19.048442 17.740234,18.748047 C18.489214,18.379103 22.061373,16.465392 23.447266,12.548828 C24.990909,8.186456 22.894531,3.5976564 22.894531,3.5976562 L22.484375,2.65625 Z M21.390625,5.566406 C21.80657,6.844969 22.471203,9.309278 21.560547,11.882812 C20.663695,14.417337 18.721054,15.754879 17.609375,16.425781 C17.19343,15.147218 16.528797,12.68291 17.439453,10.109375 C18.336305,7.57485 20.278946,6.237309 21.390625,5.566406 Z M50.609375,5.566406 C51.721054,6.237309 53.663695,7.57485 54.560547,10.109375 C55.471203,12.68291 54.80657,15.147218 54.390625,16.425781 C53.278946,15.754879 51.336305,14.417337 50.439453,11.882812 C49.528797,9.309278 50.19343,6.844969 50.609375,5.566406 Z M12,10 C11.4477153,10 11,10.4477153 11,11 C11,11.5522847 11.4477153,12 12,12 C12.5522847,12 13,11.5522847 13,11 C13,10.4477153 12.5522847,10 12,10 Z M60,10 C59.4477153,10 59,10.4477153 59,11 C59,11.5522847 59.4477153,12 60,12 C60.5522847,12 61,11.5522847 61,11 C61,10.4477153 60.5522847,10 60,10 Z M26,15 C25.4477153,15 25,15.4477153 25,16 C25,16.5522847 25.4477153,17 26,17 C26.5522847,17 27,16.5522847 27,16 C27,15.4477153 26.5522847,15 26,15 Z M46,15 C45.4477153,15 45,15.4477153 45,16 C45,16.5522847 45.4477153,17 46,17 C46.5522847,17 47,16.5522847 47,16 C47,15.4477153 46.5522847,15 46,15 Z M8.71875,16.603516 C9.820948,17.362824 11.815027,18.893163 12.646484,21.453125 C13.465344,23.974298 12.751019,26.187399 12.28125,27.390625 C11.179052,26.631317 9.184973,25.100978 8.353516,22.541016 C7.534656,20.019843 8.248981,17.806742 8.71875,16.603516 Z M63.28125,16.603516 C63.751204,17.806674 64.465951,20.01803 63.646484,22.539062 L63.646484,22.541016 C62.815027,25.100978 60.820948,26.631317 59.71875,27.390625 C59.248981,26.187399 58.534656,23.974298 59.353516,21.453125 C60.184973,18.893163 62.179052,17.362824 63.28125,16.603516 Z M20.927734,22.330078 C20.936834,23.599014 20.811998,25.801885 19.236328,27.773438 C17.63193,29.778934 15.347769,30.484285 14.072266,30.804688 C14.063066,29.535941 14.187827,27.331622 15.765625,25.359375 C17.370085,23.3538 19.652521,22.650457 20.927734,22.330078 Z M51.072266,22.330078 C52.348211,22.650692 54.630387,23.35439 56.234375,25.359375 C57.220499,26.592029 57.639521,27.916031 57.8125,29.044922 C57.813435,29.051378 57.813524,29.057996 57.814453,29.064453 C57.915462,29.733631 57.931151,30.333661 57.927734,30.804688 C56.652231,30.484285 54.36807,29.778934 52.763672,27.773438 C51.188417,25.802405 51.063516,23.599534 51.072266,22.330078 Z M5,25 C4.44771525,25 4,25.4477153 4,26 C4,26.5522847 4.44771525,27 5,27 C5.55228475,27 6,26.5522847 6,26 C6,25.4477153 5.55228475,25 5,25 Z M67,25 C66.4477153,25 66,25.4477153 66,26 C66,26.5522847 66.4477153,27 67,27 C67.5522847,27 68,26.5522847 68,26 C68,25.4477153 67.5522847,25 67,25 Z M23,30 C22.4477153,30 22,30.4477153 22,31 C22,31.5522847 22.4477153,32 23,32 C23.5522847,32 24,31.5522847 24,31 C24,30.4477153 23.5522847,30 23,30 Z M49,30 C48.4477153,30 48,30.4477153 48,31 C48,31.5522847 48.4477153,32 49,32 C49.5522847,32 50,31.5522847 50,31 C50,30.4477153 49.5522847,30 49,30 Z M6.072266,32.330078 C7.347788,32.650737 9.630767,33.354702 11.234375,35.359375 C12.812173,37.331622 12.936938,39.535941 12.927734,40.804688 C11.652231,40.484285 9.36807,39.778934 7.763672,37.773438 C6.188002,35.801884 6.063137,33.599014 6.072266,32.330078 Z M65.927734,32.330078 C65.936434,33.599534 65.811583,35.802405 64.236328,37.773438 C62.63193,39.778934 60.347769,40.484285 59.072266,40.804688 C59.063066,39.535941 59.187827,37.331622 60.765625,35.359375 C62.369613,33.35439 64.651789,32.650692 65.927734,32.330078 Z M19,35.945312 C19.771905,36.913309 21,38.661201 21,41 C21,43.309997 19.804494,45.036698 19.03125,46.011719 C18.747937,45.6613 18.472279,45.30256 18.207031,44.935547 C17.58889,43.945613 17,42.618661 17,41 C17,38.661201 18.228095,36.91331 19,35.945312 Z M53,35.945312 C53.771905,36.913309 55,38.661201 55,41 C55,42.618661 54.41111,43.945613 53.792969,44.935547 C53.527721,45.30256 53.252063,45.6613 52.96875,46.011719 C52.195506,45.036699 51,43.309997 51,41 C51,38.661201 52.228095,36.91331 53,35.945312 Z M27,39 C26.4477153,39 26,39.4477153 26,40 C26,40.5522847 26.4477153,41 27,41 C27.5522847,41 28,40.5522847 28,40 C28,39.4477153 27.5522847,39 27,39 Z M45,39 C44.4477153,39 44,39.4477153 44,40 C44,40.5522847 44.4477153,41 45,41 C45.5522847,41 46,40.5522847 46,40 C46,39.4477153 45.5522847,39 45,39 Z M6,42 C5.44771525,42 5,42.4477153 5,43 C5,43.5522847 5.44771525,44 6,44 C6.55228475,44 7,43.5522847 7,43 C7,42.4477153 6.55228475,42 6,42 Z M66,42 C65.4477153,42 65,42.4477153 65,43 C65,43.5522847 65.4477153,44 66,44 C66.5522847,44 67,43.5522847 67,43 C67,42.4477153 66.5522847,42 66,42 Z M26.283203,46.537109 C27.388277,47.136152 29.186469,48.252788 30.146484,50.328125 C31.088609,52.363457 30.76473,54.287913 30.480469,55.462891 C29.375584,54.863864 27.57796,53.747495 26.617188,51.671875 C25.675117,49.636662 25.998948,47.712158 26.283203,46.537109 Z M45.716797,46.537109 C46.001052,47.712158 46.324884,49.636662 45.382812,51.671875 C44.422041,53.747495 42.624416,54.863864 41.519531,55.462891 C41.23527,54.287913 40.911391,52.363457 41.853516,50.328125 C42.813531,48.252788 44.611723,47.136152 45.716797,46.537109 Z M13.175781,47.023438 C14.014869,46.977227 14.888689,47.036656 15.728516,47.273438 C18.23467,47.980035 19.655689,49.762904 20.392578,50.814453 C19.156332,51.304453 16.818558,52.093135 14.271484,51.375 C11.76587,50.668554 10.344597,48.885784 9.607422,47.833984 C10.435967,47.505557 11.469812,47.117386 13.175781,47.023438 Z M58.824219,47.023438 C60.530188,47.117387 61.564033,47.505557 62.392578,47.833984 C61.655403,48.885784 60.23413,50.668554 57.728516,51.375 C55.181442,52.093135 52.843668,51.30445 51.607422,50.814453 C52.344311,49.762904 53.76533,47.980034 56.271484,47.273438 C57.111311,47.036653 57.985131,46.977227 58.824219,47.023438 Z M36,54 C35.4477153,54 35,54.4477153 35,55 C35,55.5522847 35.4477153,56 36,56 C36.5522847,56 37,55.5522847 37,55 C37,54.4477153 36.5522847,54 36,54 Z M13,55 C12.4477153,55 12,55.4477153 12,56 C12,56.5522847 12.4477153,57 13,57 C13.5522847,57 14,56.5522847 14,56 C14,55.4477153 13.5522847,55 13,55 Z M59,55 C58.4477153,55 58,55.4477153 58,56 C58,56.5522847 58.4477153,57 59,57 C59.5522847,57 60,56.5522847 60,56 C60,55.4477153 59.5522847,55 59,55 Z M23.914062,56.003906 C26.295039,55.940476 28.027016,57.083834 29.013672,57.833984 C28.006045,58.635198 26.169617,59.935432 23.746094,60 C21.364896,60.06281 19.631227,58.917951 18.644531,58.167969 C19.651484,57.367078 21.489461,56.068503 23.914062,56.003906 Z M48.085938,56.003906 C50.51054,56.068506 52.348516,57.367078 53.355469,58.167969 C52.368773,58.917951 50.635104,60.062812 48.253906,60 C45.830383,59.93543 43.993955,58.635198 42.986328,57.833984 C43.972984,57.083834 45.70496,55.940472 48.085938,56.003906 Z M30,68 C29.4477153,68 29,68.4477153 29,69 C29,69.5522847 29.4477153,70 30,70 C30.5522847,70 31,69.5522847 31,69 C31,68.4477153 30.5522847,68 30,68 Z M42,68 C41.4477153,68 41,68.4477153 41,69 C41,69.5522847 41.4477153,70 42,70 C42.5522847,70 43,69.5522847 43,69 C43,68.4477153 42.5522847,68 42,68 Z" id="icon" fill="#FFFFFF"></path>
    </g>
</svg>