<?xml version="1.0" encoding="UTF-8"?>
<svg width="72px" height="72px" viewBox="0 0 72 72" version="1.1" xmlns="http://www.w3.org/2000/svg" xmlns:xlink="http://www.w3.org/1999/xlink">
    <!-- Generator: Sketch 54.1 (76490) - https://sketchapp.com -->
    <title>Icon Big/categorize</title>
    <desc>Created with Sketch.</desc>
    <g id="Icon-Big/categorize" stroke="none" stroke-width="1" fill="none" fill-rule="evenodd">
        <path d="M6,6 L6,32 L32,32 L32,6 L6,6 Z M40,6 L40,32 L66,32 L66,6 L40,6 Z M8,8 L30,8 L30,12 L8,12 L8,8 Z M42,8 L64,8 L64,30 L42,30 L42,8 Z M8,14 L30,14 L30,18 L8,18 L8,14 Z M8,20 L30,20 L30,24 L8,24 L8,20 Z M8,26 L30,26 L30,30 L8,30 L8,26 Z M6,39 L6,66 L33,66 L33,39 L6,39 Z M40,40 L40,66 L66,66 L66,40 L40,40 Z M8,41 C8,41.550781 8.449219,42 9,42 C9.550781,42 10,41.550781 10,41 L12,41 C12,41.550781 12.449219,42 13,42 C13.550781,42 14,41.550781 14,41 L16,41 C16,41.550781 16.449219,42 17,42 C17.550781,42 18,41.550781 18,41 L20,41 C20,41.550781 20.449219,42 21,42 C21.550781,42 22,41.550781 22,41 L24,41 C24,41.550781 24.449219,42 25,42 C25.550781,42 26,41.550781 26,41 L28,41 C28,41.550781 28.449219,42 29,42 C29.550781,42 30,41.550781 30,41 L31,41 L31,43 C30.449219,43 30,43.449219 30,44 C30,44.550781 30.449219,45 31,45 L31,49 C30.449219,49 30,49.449219 30,50 C30,50.550781 30.449219,51 31,51 L31,55 C30.449219,55 30,55.449219 30,56 C30,56.550781 30.449219,57 31,57 L31,61 C30.449219,61 30,61.449219 30,62 C30,62.550781 30.449219,63 31,63 L31,64 L8,64 L8,41 Z M8,47 C8,47.550781 8.449219,48 9,48 C9.550781,48 10,47.550781 10,47 C10,46.449219 9.550781,46 9,46 C8.449219,46 8,46.449219 8,47 Z M8,53 C8,53.550781 8.449219,54 9,54 C9.550781,54 10,53.550781 10,53 C10,52.449219 9.550781,52 9,52 C8.449219,52 8,52.449219 8,53 Z M8,59 C8,59.550781 8.449219,60 9,60 C9.550781,60 10,59.550781 10,59 C10,58.449219 9.550781,58 9,58 C8.449219,58 8,58.449219 8,59 Z M42,42 L64,42 L64,45 C63.449219,45 63,45.449219 63,46 C63,46.550781 63.449219,47 64,47 L64,51 C63.449219,51 63,51.449219 63,52 C63,52.550781 63.449219,53 64,53 L64,57 C63.449219,57 63,57.449219 63,58 C63,58.550781 63.449219,59 64,59 L64,63 C63.449219,63 63,63.449219 63,64 L59,64 C59,63.449219 58.550781,63 58,63 C57.449219,63 57,63.449219 57,64 L53,64 C53,63.449219 52.550781,63 52,63 C51.449219,63 51,63.449219 51,64 L47,64 C47,63.449219 46.550781,63 46,63 C45.449219,63 45,63.449219 45,64 L42,64 L42,42 Z M42,43 C42,43.550781 42.449219,44 43,44 C43.550781,44 44,43.550781 44,43 C44,42.449219 43.550781,42 43,42 C42.449219,42 42,42.449219 42,43 Z M42,49 C42,49.550781 42.449219,50 43,50 C43.550781,50 44,49.550781 44,49 C44,48.449219 43.550781,48 43,48 C42.449219,48 42,48.449219 42,49 Z M42,55 C42,55.550781 42.449219,56 43,56 C43.550781,56 44,55.550781 44,55 C44,54.449219 43.550781,54 43,54 C42.449219,54 42,54.449219 42,55 Z M42,61 C42,61.550781 42.449219,62 43,62 C43.550781,62 44,61.550781 44,61 C44,60.449219 43.550781,60 43,60 C42.449219,60 42,60.449219 42,61 Z M61,42 C60.449219,42 60,42.449219 60,43 C60,43.550781 60.449219,44 61,44 C61.550781,44 62,43.550781 62,43 C62,42.449219 61.550781,42 61,42 Z M55,42 C54.449219,42 54,42.449219 54,43 C54,43.550781 54.449219,44 55,44 C55.550781,44 56,43.550781 56,43 C56,42.449219 55.550781,42 55,42 Z M49,42 C48.449219,42 48,42.449219 48,43 C48,43.550781 48.449219,44 49,44 C49.550781,44 50,43.550781 50,43 C50,42.449219 49.550781,42 49,42 Z M11,43 C10.449219,43 10,43.449219 10,44 C10,44.550781 10.449219,45 11,45 C11.550781,45 12,44.550781 12,44 C12,43.449219 11.550781,43 11,43 Z M15,43 C14.449219,43 14,43.449219 14,44 C14,44.550781 14.449219,45 15,45 C15.550781,45 16,44.550781 16,44 C16,43.449219 15.550781,43 15,43 Z M19,43 C18.449219,43 18,43.449219 18,44 C18,44.550781 18.449219,45 19,45 C19.550781,45 20,44.550781 20,44 C20,43.449219 19.550781,43 19,43 Z M23,43 C22.449219,43 22,43.449219 22,44 C22,44.550781 22.449219,45 23,45 C23.550781,45 24,44.550781 24,44 C24,43.449219 23.550781,43 23,43 Z M27,43 C26.449219,43 26,43.449219 26,44 C26,44.550781 26.449219,45 27,45 C27.550781,45 28,44.550781 28,44 C28,43.449219 27.550781,43 27,43 Z M46,45 C45.449219,45 45,45.449219 45,46 C45,46.550781 45.449219,47 46,47 C46.550781,47 47,46.550781 47,46 C47,45.449219 46.550781,45 46,45 Z M52,45 C51.449219,45 51,45.449219 51,46 C51,46.550781 51.449219,47 52,47 C52.550781,47 53,46.550781 53,46 C53,45.449219 52.550781,45 52,45 Z M58,45 C57.449219,45 57,45.449219 57,46 C57,46.550781 57.449219,47 58,47 C58.550781,47 59,46.550781 59,46 C59,45.449219 58.550781,45 58,45 Z M13,46 C12.449219,46 12,46.449219 12,47 C12,47.550781 12.449219,48 13,48 C13.550781,48 14,47.550781 14,47 C14,46.449219 13.550781,46 13,46 Z M17,46 C16.449219,46 16,46.449219 16,47 C16,47.550781 16.449219,48 17,48 C17.550781,48 18,47.550781 18,47 C18,46.449219 17.550781,46 17,46 Z M21,46 C20.449219,46 20,46.449219 20,47 C20,47.550781 20.449219,48 21,48 C21.550781,48 22,47.550781 22,47 C22,46.449219 21.550781,46 21,46 Z M25,46 C24.449219,46 24,46.449219 24,47 C24,47.550781 24.449219,48 25,48 C25.550781,48 26,47.550781 26,47 C26,46.449219 25.550781,46 25,46 Z M29,46 C28.449219,46 28,46.449219 28,47 C28,47.550781 28.449219,48 29,48 C29.550781,48 30,47.550781 30,47 C30,46.449219 29.550781,46 29,46 Z M49,48 C48.449219,48 48,48.449219 48,49 C48,49.550781 48.449219,50 49,50 C49.550781,50 50,49.550781 50,49 C50,48.449219 49.550781,48 49,48 Z M55,48 C54.449219,48 54,48.449219 54,49 C54,49.550781 54.449219,50 55,50 C55.550781,50 56,49.550781 56,49 C56,48.449219 55.550781,48 55,48 Z M61,48 C60.449219,48 60,48.449219 60,49 C60,49.550781 60.449219,50 61,50 C61.550781,50 62,49.550781 62,49 C62,48.449219 61.550781,48 61,48 Z M11,49 C10.449219,49 10,49.449219 10,50 C10,50.550781 10.449219,51 11,51 C11.550781,51 12,50.550781 12,50 C12,49.449219 11.550781,49 11,49 Z M15,49 C14.449219,49 14,49.449219 14,50 C14,50.550781 14.449219,51 15,51 C15.550781,51 16,50.550781 16,50 C16,49.449219 15.550781,49 15,49 Z M19,49 C18.449219,49 18,49.449219 18,50 C18,50.550781 18.449219,51 19,51 C19.550781,51 20,50.550781 20,50 C20,49.449219 19.550781,49 19,49 Z M23,49 C22.449219,49 22,49.449219 22,50 C22,50.550781 22.449219,51 23,51 C23.550781,51 24,50.550781 24,50 C24,49.449219 23.550781,49 23,49 Z M27,49 C26.449219,49 26,49.449219 26,50 C26,50.550781 26.449219,51 27,51 C27.550781,51 28,50.550781 28,50 C28,49.449219 27.550781,49 27,49 Z M46,51 C45.449219,51 45,51.449219 45,52 C45,52.550781 45.449219,53 46,53 C46.550781,53 47,52.550781 47,52 C47,51.449219 46.550781,51 46,51 Z M52,51 C51.449219,51 51,51.449219 51,52 C51,52.550781 51.449219,53 52,53 C52.550781,53 53,52.550781 53,52 C53,51.449219 52.550781,51 52,51 Z M58,51 C57.449219,51 57,51.449219 57,52 C57,52.550781 57.449219,53 58,53 C58.550781,53 59,52.550781 59,52 C59,51.449219 58.550781,51 58,51 Z M13,52 C12.449219,52 12,52.449219 12,53 C12,53.550781 12.449219,54 13,54 C13.550781,54 14,53.550781 14,53 C14,52.449219 13.550781,52 13,52 Z M17,52 C16.449219,52 16,52.449219 16,53 C16,53.550781 16.449219,54 17,54 C17.550781,54 18,53.550781 18,53 C18,52.449219 17.550781,52 17,52 Z M21,52 C20.449219,52 20,52.449219 20,53 C20,53.550781 20.449219,54 21,54 C21.550781,54 22,53.550781 22,53 C22,52.449219 21.550781,52 21,52 Z M25,52 C24.449219,52 24,52.449219 24,53 C24,53.550781 24.449219,54 25,54 C25.550781,54 26,53.550781 26,53 C26,52.449219 25.550781,52 25,52 Z M29,52 C28.449219,52 28,52.449219 28,53 C28,53.550781 28.449219,54 29,54 C29.550781,54 30,53.550781 30,53 C30,52.449219 29.550781,52 29,52 Z M49,54 C48.449219,54 48,54.449219 48,55 C48,55.550781 48.449219,56 49,56 C49.550781,56 50,55.550781 50,55 C50,54.449219 49.550781,54 49,54 Z M55,54 C54.449219,54 54,54.449219 54,55 C54,55.550781 54.449219,56 55,56 C55.550781,56 56,55.550781 56,55 C56,54.449219 55.550781,54 55,54 Z M61,54 C60.449219,54 60,54.449219 60,55 C60,55.550781 60.449219,56 61,56 C61.550781,56 62,55.550781 62,55 C62,54.449219 61.550781,54 61,54 Z M11,55 C10.449219,55 10,55.449219 10,56 C10,56.550781 10.449219,57 11,57 C11.550781,57 12,56.550781 12,56 C12,55.449219 11.550781,55 11,55 Z M15,55 C14.449219,55 14,55.449219 14,56 C14,56.550781 14.449219,57 15,57 C15.550781,57 16,56.550781 16,56 C16,55.449219 15.550781,55 15,55 Z M19,55 C18.449219,55 18,55.449219 18,56 C18,56.550781 18.449219,57 19,57 C19.550781,57 20,56.550781 20,56 C20,55.449219 19.550781,55 19,55 Z M23,55 C22.449219,55 22,55.449219 22,56 C22,56.550781 22.449219,57 23,57 C23.550781,57 24,56.550781 24,56 C24,55.449219 23.550781,55 23,55 Z M27,55 C26.449219,55 26,55.449219 26,56 C26,56.550781 26.449219,57 27,57 C27.550781,57 28,56.550781 28,56 C28,55.449219 27.550781,55 27,55 Z M46,57 C45.449219,57 45,57.449219 45,58 C45,58.550781 45.449219,59 46,59 C46.550781,59 47,58.550781 47,58 C47,57.449219 46.550781,57 46,57 Z M52,57 C51.449219,57 51,57.449219 51,58 C51,58.550781 51.449219,59 52,59 C52.550781,59 53,58.550781 53,58 C53,57.449219 52.550781,57 52,57 Z M58,57 C57.449219,57 57,57.449219 57,58 C57,58.550781 57.449219,59 58,59 C58.550781,59 59,58.550781 59,58 C59,57.449219 58.550781,57 58,57 Z M13,58 C12.449219,58 12,58.449219 12,59 C12,59.550781 12.449219,60 13,60 C13.550781,60 14,59.550781 14,59 C14,58.449219 13.550781,58 13,58 Z M17,58 C16.449219,58 16,58.449219 16,59 C16,59.550781 16.449219,60 17,60 C17.550781,60 18,59.550781 18,59 C18,58.449219 17.550781,58 17,58 Z M21,58 C20.449219,58 20,58.449219 20,59 C20,59.550781 20.449219,60 21,60 C21.550781,60 22,59.550781 22,59 C22,58.449219 21.550781,58 21,58 Z M25,58 C24.449219,58 24,58.449219 24,59 C24,59.550781 24.449219,60 25,60 C25.550781,60 26,59.550781 26,59 C26,58.449219 25.550781,58 25,58 Z M29,58 C28.449219,58 28,58.449219 28,59 C28,59.550781 28.449219,60 29,60 C29.550781,60 30,59.550781 30,59 C30,58.449219 29.550781,58 29,58 Z M49,60 C48.449219,60 48,60.449219 48,61 C48,61.550781 48.449219,62 49,62 C49.550781,62 50,61.550781 50,61 C50,60.449219 49.550781,60 49,60 Z M55,60 C54.449219,60 54,60.449219 54,61 C54,61.550781 54.449219,62 55,62 C55.550781,62 56,61.550781 56,61 C56,60.449219 55.550781,60 55,60 Z M61,60 C60.449219,60 60,60.449219 60,61 C60,61.550781 60.449219,62 61,62 C61.550781,62 62,61.550781 62,61 C62,60.449219 61.550781,60 61,60 Z M11,61 C10.449219,61 10,61.449219 10,62 C10,62.550781 10.449219,63 11,63 C11.550781,63 12,62.550781 12,62 C12,61.449219 11.550781,61 11,61 Z M15,61 C14.449219,61 14,61.449219 14,62 C14,62.550781 14.449219,63 15,63 C15.550781,63 16,62.550781 16,62 C16,61.449219 15.550781,61 15,61 Z M19,61 C18.449219,61 18,61.449219 18,62 C18,62.550781 18.449219,63 19,63 C19.550781,63 20,62.550781 20,62 C20,61.449219 19.550781,61 19,61 Z M23,61 C22.449219,61 22,61.449219 22,62 C22,62.550781 22.449219,63 23,63 C23.550781,63 24,62.550781 24,62 C24,61.449219 23.550781,61 23,61 Z M27,61 C26.449219,61 26,61.449219 26,62 C26,62.550781 26.449219,63 27,63 C27.550781,63 28,62.550781 28,62 C28,61.449219 27.550781,61 27,61 Z" id="icon" fill="#FFFFFF"></path>
    </g>
</svg>