<?xml version="1.0" encoding="UTF-8"?>
<svg width="72px" height="72px" viewBox="0 0 72 72" version="1.1" xmlns="http://www.w3.org/2000/svg" xmlns:xlink="http://www.w3.org/1999/xlink">
    <!-- Generator: Sketch 54.1 (76490) - https://sketchapp.com -->
    <title>Icon Big/sending-video-frames</title>
    <desc>Created with Sketch.</desc>
    <g id="Icon-Big/sending-video-frames" stroke="none" stroke-width="1" fill="none" fill-rule="evenodd">
        <path d="M11,6 C10.4477153,6 10,6.44771525 10,7 C10,7.55228475 10.4477153,8 11,8 C11.5522847,8 12,7.55228475 12,7 C12,6.44771525 11.5522847,6 11,6 Z M36,6 C35.4477153,6 35,6.44771525 35,7 C35,7.55228475 35.4477153,8 36,8 C36.5522847,8 37,7.55228475 37,7 C37,6.44771525 36.5522847,6 36,6 Z M61,6 C60.4477153,6 60,6.44771525 60,7 C60,7.55228475 60.4477153,8 61,8 C61.5522847,8 62,7.55228475 62,7 C62,6.44771525 61.5522847,6 61,6 Z M11,10 C10.4477153,10 10,10.4477153 10,11 C10,11.5522847 10.4477153,12 11,12 C11.5522847,12 12,11.5522847 12,11 C12,10.4477153 11.5522847,10 11,10 Z M36,10 C35.4477153,10 35,10.4477153 35,11 C35,11.5522847 35.4477153,12 36,12 C36.5522847,12 37,11.5522847 37,11 C37,10.4477153 36.5522847,10 36,10 Z M61,10 C60.4477153,10 60,10.4477153 60,11 C60,11.5522847 60.4477153,12 61,12 C61.5522847,12 62,11.5522847 62,11 C62,10.4477153 61.5522847,10 61,10 Z M10.984375,13.986328 C10.9359304,13.987378 10.8876262,13.9919473 10.839844,14 L3,14 L3,56 L26,56 L26,60 L21,60 C18.802666,60 17,61.802666 17,64 L17,66 L55,66 L55,64 C55,61.802666 53.197334,60 51,60 L46,60 L46,56 L69,56 L69,14 L61.167969,14 C60.8751105,13.9501052 60.575228,14.0329909 60.3495627,14.2262026 C60.1238974,14.4194143 59.9958098,14.7029511 60,15 L60,46 L12,46 L12,15 C12.0037015,14.7296997 11.8978233,14.4694133 11.7064903,14.2784483 C11.5151573,14.0874832 11.2546677,13.9821063 10.984375,13.986328 Z M36,14 C35.4477153,14 35,14.4477153 35,15 C35,15.5522847 35.4477153,16 36,16 C36.5522847,16 37,15.5522847 37,15 C37,14.4477153 36.5522847,14 36,14 Z M5,16 L10,16 L10,48 L62,48 L62,16 L67,16 L67,54 L46,54 L26,54 L5,54 L5,16 Z M15,17 L15,19 L18,19 L18,17 L15,17 Z M54,17 L54,19 L57,19 L57,17 L54,17 Z M35.984375,17.986328 C35.4328588,17.9949491 34.9924473,18.4484681 35,19 L35,33.65625 L29.636719,28.292969 C29.4479757,28.0989495 29.1886484,27.9897218 28.917969,27.990234 C28.5114014,27.9911335 28.1458413,28.2380715 27.9932208,28.6149069 C27.8406002,28.9917423 27.9312977,29.4234674 28.222656,29.707031 L36,37.484375 L43.777344,29.707031 C44.0385774,29.4562127 44.1438064,29.0837658 44.0524485,28.7333283 C43.9610905,28.3828908 43.6874211,28.1092215 43.3369835,28.0178638 C42.986546,27.9265062 42.6140991,28.0317355 42.363281,28.292969 L37,33.65625 L37,19 C37.0037015,18.7296997 36.8978233,18.4694133 36.7064903,18.2784483 C36.5151573,18.0874832 36.2546677,17.9821063 35.984375,17.986328 Z M15,23 L15,25 L18,25 L18,23 L15,23 Z M54,23 L54,25 L57,25 L57,23 L54,23 Z M15,29 L15,31 L18,31 L18,29 L15,29 Z M54,29 L54,31 L57,31 L57,29 L54,29 Z M15,35 L15,37 L18,37 L18,35 L15,35 Z M54,35 L54,37 L57,37 L57,35 L54,35 Z M15,41 L15,43 L18,43 L18,41 L15,41 Z M54,41 L54,43 L57,43 L57,41 L54,41 Z M28,56 L44,56 L44,62 L51,62 C52.116666,62 53,62.883334 53,64 L19,64 C19,62.883334 19.883334,62 21,62 L28,62 L28,56 Z M30,60 C29.4477153,60 29,60.4477153 29,61 C29,61.5522847 29.4477153,62 30,62 C30.5522847,62 31,61.5522847 31,61 C31,60.4477153 30.5522847,60 30,60 Z M34,60 C33.4477153,60 33,60.4477153 33,61 C33,61.5522847 33.4477153,62 34,62 C34.5522847,62 35,61.5522847 35,61 C35,60.4477153 34.5522847,60 34,60 Z M38,60 C37.4477153,60 37,60.4477153 37,61 C37,61.5522847 37.4477153,62 38,62 C38.5522847,62 39,61.5522847 39,61 C39,60.4477153 38.5522847,60 38,60 Z M42,60 C41.4477153,60 41,60.4477153 41,61 C41,61.5522847 41.4477153,62 42,62 C42.5522847,62 43,61.5522847 43,61 C43,60.4477153 42.5522847,60 42,60 Z" id="icon" fill="#FFFFFF"></path>
    </g>
</svg>