<?xml version="1.0" encoding="UTF-8"?>
<svg width="72px" height="72px" viewBox="0 0 72 72" version="1.1" xmlns="http://www.w3.org/2000/svg" xmlns:xlink="http://www.w3.org/1999/xlink">
    <!-- Generator: Sketch 54.1 (76490) - https://sketchapp.com -->
    <title>Icon Big/load-balancer</title>
    <desc>Created with Sketch.</desc>
    <g id="Icon-Big/load-balancer" stroke="none" stroke-width="1" fill="none" fill-rule="evenodd">
        <path d="M48,1 C46.35503,1 45,2.3550302 45,4 L45,15 C44.4477153,15 44,15.4477153 44,16 C44,16.5522847 44.4477153,17 45,17 L45,30 C45,31.64497 46.35503,33 48,33 L64,33 C65.64497,33 67,31.64497 67,30 L67,4 C67,2.3550302 65.64497,1 64,1 L48,1 Z M48,3 L64,3 C64.56503,3 65,3.4349698 65,4 L65,30 C65,30.56503 64.56503,31 64,31 L48,31 C47.43497,31 47,30.56503 47,30 L47,4 C47,3.4349698 47.43497,3 48,3 Z M49,5 L49,6 L49,15 L63,15 L63,5 L49,5 Z M51,7 L61,7 L61,9 L51,9 L51,7 Z M51,11 L61,11 L61,13 L51,13 L51,11 Z M37,15 C36.4477153,15 36,15.4477153 36,16 C36,16.5522847 36.4477153,17 37,17 C37.5522847,17 38,16.5522847 38,16 C38,15.4477153 37.5522847,15 37,15 Z M41,15 C40.4477153,15 40,15.4477153 40,16 C40,16.5522847 40.4477153,17 41,17 C41.5522847,17 42,16.5522847 42,16 C42,15.4477153 41.5522847,15 41,15 Z M8,18 C6.35503,18 5,19.35503 5,21 L5,51 C5,52.64497 6.35503,54 8,54 L26,54 C27.64497,54 29,52.64497 29,51 L29,37 C29.5522847,37 30,36.5522847 30,36 C30,35.4477153 29.5522847,35 29,35 L29,21 C29,19.35503 27.64497,18 26,18 L8,18 Z M37,19 C36.4477153,19 36,19.4477153 36,20 C36,20.5522847 36.4477153,21 37,21 C37.5522847,21 38,20.5522847 38,20 C38,19.4477153 37.5522847,19 37,19 Z M8,20 L26,20 C26.56503,20 27,20.43497 27,21 L27,51 C27,51.56503 26.56503,52 26,52 L8,52 C7.43497,52 7,51.56503 7,51 L7,21 C7,20.43497 7.43497,20 8,20 Z M9,22 L9,23 L9,36 L25,36 L25,22 L9,22 Z M37,23 C36.4477153,23 36,23.4477153 36,24 C36,24.5522847 36.4477153,25 37,25 C37.5522847,25 38,24.5522847 38,24 C38,23.4477153 37.5522847,23 37,23 Z M11,24 L23,24 L23,26 L11,26 L11,24 Z M56,24 C54.8954305,24 54,24.8954305 54,26 C54,27.1045695 54.8954305,28 56,28 C57.1045695,28 58,27.1045695 58,26 C58,24.8954305 57.1045695,24 56,24 Z M37,27 C36.4477153,27 36,27.4477153 36,28 C36,28.5522847 36.4477153,29 37,29 C37.5522847,29 38,28.5522847 38,28 C38,27.4477153 37.5522847,27 37,27 Z M11,28 L23,28 L23,30 L11,30 L11,28 Z M37,31 C36.4477153,31 36,31.4477153 36,32 C36,32.5522847 36.4477153,33 37,33 C37.5522847,33 38,32.5522847 38,32 C38,31.4477153 37.5522847,31 37,31 Z M11,32 L23,32 L23,34 L11,34 L11,32 Z M33,35 C32.4477153,35 32,35.4477153 32,36 C32,36.5522847 32.4477153,37 33,37 C33.5522847,37 34,36.5522847 34,36 C34,35.4477153 33.5522847,35 33,35 Z M37,35 C36.4477153,35 36,35.4477153 36,36 C36,36.5522847 36.4477153,37 37,37 C37.5522847,37 38,36.5522847 38,36 C38,35.4477153 37.5522847,35 37,35 Z M10,39 C9.44771525,39 9,39.4477153 9,40 C9,40.5522847 9.44771525,41 10,41 C10.5522847,41 11,40.5522847 11,40 C11,39.4477153 10.5522847,39 10,39 Z M37,39 C36.4477153,39 36,39.4477153 36,40 C36,40.5522847 36.4477153,41 37,41 C37.5522847,41 38,40.5522847 38,40 C38,39.4477153 37.5522847,39 37,39 Z M48,39 C46.35503,39 45,40.35503 45,42 L45,56 C44.4477153,56 44,56.4477153 44,57 C44,57.5522847 44.4477153,58 45,58 L45,68 C45,69.64497 46.35503,71 48,71 L64,71 C65.64497,71 67,69.64497 67,68 L67,42 C67,40.35503 65.64497,39 64,39 L48,39 Z M48,41 L64,41 C64.56503,41 65,41.43497 65,42 L65,68 C65,68.56503 64.56503,69 64,69 L48,69 C47.43497,69 47,68.56503 47,68 L47,42 C47,41.43497 47.43497,41 48,41 Z M10,43 C9.44771525,43 9,43.4477153 9,44 C9,44.5522847 9.44771525,45 10,45 C10.5522847,45 11,44.5522847 11,44 C11,43.4477153 10.5522847,43 10,43 Z M49,43 L49,44 L49,53 L63,53 L63,43 L49,43 Z M37,44 C36.4477153,44 36,44.4477153 36,45 C36,45.5522847 36.4477153,46 37,46 C37.5522847,46 38,45.5522847 38,45 C38,44.4477153 37.5522847,44 37,44 Z M17,45 C15.8954305,45 15,45.8954305 15,47 C15,48.1045695 15.8954305,49 17,49 C18.1045695,49 19,48.1045695 19,47 C19,45.8954305 18.1045695,45 17,45 Z M51,45 L61,45 L61,47 L51,47 L51,45 Z M10,47 C9.44771525,47 9,47.4477153 9,48 C9,48.5522847 9.44771525,49 10,49 C10.5522847,49 11,48.5522847 11,48 C11,47.4477153 10.5522847,47 10,47 Z M37,48 C36.4477153,48 36,48.4477153 36,49 C36,49.5522847 36.4477153,50 37,50 C37.5522847,50 38,49.5522847 38,49 C38,48.4477153 37.5522847,48 37,48 Z M51,49 L61,49 L61,51 L51,51 L51,49 Z M37,52 C36.4477153,52 36,52.4477153 36,53 C36,53.5522847 36.4477153,54 37,54 C37.5522847,54 38,53.5522847 38,53 C38,52.4477153 37.5522847,52 37,52 Z M37,56 C36.4477153,56 36,56.4477153 36,57 C36,57.5522847 36.4477153,58 37,58 C37.5522847,58 38,57.5522847 38,57 C38,56.4477153 37.5522847,56 37,56 Z M41,56 C40.4477153,56 40,56.4477153 40,57 C40,57.5522847 40.4477153,58 41,58 C41.5522847,58 42,57.5522847 42,57 C42,56.4477153 41.5522847,56 41,56 Z M56,62 C54.8954305,62 54,62.8954305 54,64 C54,65.1045695 54.8954305,66 56,66 C57.1045695,66 58,65.1045695 58,64 C58,62.8954305 57.1045695,62 56,62 Z" id="icon" fill="#FFFFFF"></path>
    </g>
</svg>